<mxfile host="Electron" agent="Mozilla/5.0 (Macintosh; Intel Mac OS X 10_15_7) AppleWebKit/537.36 (KHTML, like Gecko) draw.io/26.0.4 Chrome/128.0.6613.186 Electron/32.2.5 Safari/537.36" version="26.0.4">
  <diagram name="Page-1" id="4DayEPhghMPXF7dchOmI">
    <mxGraphModel dx="2318" dy="1118" grid="1" gridSize="14" guides="1" tooltips="1" connect="1" arrows="1" fold="1" page="1" pageScale="1" pageWidth="850" pageHeight="1100" math="0" shadow="0">
      <root>
        <mxCell id="0" />
        <mxCell id="1" parent="0" />
        <mxCell id="eMzB1tQoJw2lMaS6Gx2Q-1" value="&lt;font style=&quot;font-size: 18px;&quot;&gt;Function requirement:&lt;/font&gt;&lt;div&gt;&lt;br&gt;&lt;div&gt;watch videos&lt;/div&gt;&lt;div&gt;search of them&lt;/div&gt;&lt;div&gt;like / dislike comment&lt;/div&gt;&lt;div&gt;share videos&lt;/div&gt;&lt;/div&gt;" style="rounded=0;whiteSpace=wrap;html=1;align=left;" vertex="1" parent="1">
          <mxGeometry x="-772" y="14" width="180" height="90" as="geometry" />
        </mxCell>
        <mxCell id="eMzB1tQoJw2lMaS6Gx2Q-2" value="&lt;font style=&quot;font-size: 18px;&quot;&gt;Non-functional&lt;/font&gt;&lt;div&gt;&lt;br&gt;&lt;/div&gt;&lt;div&gt;Reliable&lt;br&gt;Availbale&lt;/div&gt;&lt;div&gt;No lag&lt;/div&gt;" style="rounded=0;whiteSpace=wrap;html=1;align=left;" vertex="1" parent="1">
          <mxGeometry x="-562" y="14" width="130" height="90" as="geometry" />
        </mxCell>
        <mxCell id="eMzB1tQoJw2lMaS6Gx2Q-3" value="Actor" style="shape=umlActor;verticalLabelPosition=bottom;verticalAlign=top;html=1;outlineConnect=0;" vertex="1" parent="1">
          <mxGeometry x="-772" y="306.17" width="30" height="60" as="geometry" />
        </mxCell>
        <mxCell id="eMzB1tQoJw2lMaS6Gx2Q-7" value="" style="image;aspect=fixed;perimeter=ellipsePerimeter;html=1;align=center;shadow=0;dashed=0;spacingTop=3;image=img/lib/active_directory/web_server.svg;" vertex="1" parent="1">
          <mxGeometry x="-602" y="266.17" width="80" height="100" as="geometry" />
        </mxCell>
        <mxCell id="eMzB1tQoJw2lMaS6Gx2Q-8" value="" style="endArrow=classic;startArrow=classic;html=1;rounded=0;" edge="1" parent="1">
          <mxGeometry width="50" height="50" relative="1" as="geometry">
            <mxPoint x="-732" y="316.17" as="sourcePoint" />
            <mxPoint x="-612" y="316.17" as="targetPoint" />
          </mxGeometry>
        </mxCell>
        <mxCell id="eMzB1tQoJw2lMaS6Gx2Q-9" value="" style="endArrow=classic;startArrow=classic;html=1;rounded=0;" edge="1" parent="1">
          <mxGeometry width="50" height="50" relative="1" as="geometry">
            <mxPoint x="-732" y="336.17" as="sourcePoint" />
            <mxPoint x="-612" y="336.17" as="targetPoint" />
          </mxGeometry>
        </mxCell>
        <mxCell id="eMzB1tQoJw2lMaS6Gx2Q-10" value="" style="endArrow=classic;startArrow=classic;html=1;rounded=0;" edge="1" parent="1">
          <mxGeometry width="50" height="50" relative="1" as="geometry">
            <mxPoint x="-732" y="366.17" as="sourcePoint" />
            <mxPoint x="-612" y="366.17" as="targetPoint" />
          </mxGeometry>
        </mxCell>
        <mxCell id="eMzB1tQoJw2lMaS6Gx2Q-11" value="Upload / Search / View" style="text;html=1;align=center;verticalAlign=middle;resizable=0;points=[];autosize=1;strokeColor=none;fillColor=none;" vertex="1" parent="1">
          <mxGeometry x="-742" y="286.17" width="150" height="30" as="geometry" />
        </mxCell>
        <mxCell id="eMzB1tQoJw2lMaS6Gx2Q-12" value="" style="outlineConnect=0;dashed=0;verticalLabelPosition=bottom;verticalAlign=top;align=center;html=1;shape=mxgraph.aws3.classic_load_balancer;fillColor=#F58536;gradientColor=none;" vertex="1" parent="1">
          <mxGeometry x="-342" y="302" width="69" height="72" as="geometry" />
        </mxCell>
        <mxCell id="eMzB1tQoJw2lMaS6Gx2Q-15" value="" style="curved=1;endArrow=classic;html=1;rounded=0;exitX=0.855;exitY=0.145;exitDx=0;exitDy=0;exitPerimeter=0;" edge="1" parent="1" source="eMzB1tQoJw2lMaS6Gx2Q-12">
          <mxGeometry width="50" height="50" relative="1" as="geometry">
            <mxPoint x="-282" y="302" as="sourcePoint" />
            <mxPoint x="-202" y="232" as="targetPoint" />
            <Array as="points">
              <mxPoint x="-232" y="302" />
              <mxPoint x="-282" y="252" />
            </Array>
          </mxGeometry>
        </mxCell>
        <mxCell id="eMzB1tQoJw2lMaS6Gx2Q-17" value="" style="endArrow=classic;html=1;rounded=0;" edge="1" parent="1">
          <mxGeometry width="50" height="50" relative="1" as="geometry">
            <mxPoint x="-273" y="342" as="sourcePoint" />
            <mxPoint x="-192" y="342" as="targetPoint" />
          </mxGeometry>
        </mxCell>
        <mxCell id="eMzB1tQoJw2lMaS6Gx2Q-19" value="" style="sketch=0;aspect=fixed;pointerEvents=1;shadow=0;dashed=0;html=1;strokeColor=none;labelPosition=center;verticalLabelPosition=bottom;verticalAlign=top;align=center;fillColor=#00188D;shape=mxgraph.mscae.enterprise.application_server" vertex="1" parent="1">
          <mxGeometry x="-202" y="182" width="77.4" height="90" as="geometry" />
        </mxCell>
        <mxCell id="eMzB1tQoJw2lMaS6Gx2Q-20" value="" style="sketch=0;aspect=fixed;pointerEvents=1;shadow=0;dashed=0;html=1;strokeColor=none;labelPosition=center;verticalLabelPosition=bottom;verticalAlign=top;align=center;fillColor=#00188D;shape=mxgraph.mscae.enterprise.application_server" vertex="1" parent="1">
          <mxGeometry x="-192" y="302" width="77.4" height="90" as="geometry" />
        </mxCell>
        <mxCell id="eMzB1tQoJw2lMaS6Gx2Q-21" value="" style="sketch=0;aspect=fixed;pointerEvents=1;shadow=0;dashed=0;html=1;strokeColor=none;labelPosition=center;verticalLabelPosition=bottom;verticalAlign=top;align=center;fillColor=#00188D;shape=mxgraph.mscae.enterprise.application_server" vertex="1" parent="1">
          <mxGeometry x="-184" y="428" width="86" height="100" as="geometry" />
        </mxCell>
        <mxCell id="eMzB1tQoJw2lMaS6Gx2Q-23" value="" style="endArrow=classic;html=1;rounded=0;entryX=-0.013;entryY=0.372;entryDx=0;entryDy=0;entryPerimeter=0;" edge="1" parent="1" target="eMzB1tQoJw2lMaS6Gx2Q-21">
          <mxGeometry width="50" height="50" relative="1" as="geometry">
            <mxPoint x="-292" y="367" as="sourcePoint" />
            <mxPoint x="-242" y="317" as="targetPoint" />
          </mxGeometry>
        </mxCell>
        <mxCell id="eMzB1tQoJw2lMaS6Gx2Q-24" value="Meta Database" style="shape=datastore;whiteSpace=wrap;html=1;" vertex="1" parent="1">
          <mxGeometry x="185.1" y="468" width="80.6" height="82" as="geometry" />
        </mxCell>
        <mxCell id="eMzB1tQoJw2lMaS6Gx2Q-25" value="User Database" style="shape=datastore;whiteSpace=wrap;html=1;" vertex="1" parent="1">
          <mxGeometry x="12" y="468" width="84" height="82" as="geometry" />
        </mxCell>
        <mxCell id="eMzB1tQoJw2lMaS6Gx2Q-30" value="" style="endArrow=classic;html=1;rounded=0;entryX=0;entryY=0.5;entryDx=0;entryDy=0;entryPerimeter=0;exitX=1;exitY=0.62;exitDx=0;exitDy=0;exitPerimeter=0;" edge="1" parent="1" source="eMzB1tQoJw2lMaS6Gx2Q-19" target="eMzB1tQoJw2lMaS6Gx2Q-35">
          <mxGeometry width="50" height="50" relative="1" as="geometry">
            <mxPoint x="-124.6" y="232" as="sourcePoint" />
            <mxPoint x="14" y="308" as="targetPoint" />
          </mxGeometry>
        </mxCell>
        <mxCell id="eMzB1tQoJw2lMaS6Gx2Q-31" value="" style="endArrow=classic;html=1;rounded=0;exitX=0.588;exitY=0.194;exitDx=0;exitDy=0;exitPerimeter=0;entryX=-0.036;entryY=0.638;entryDx=0;entryDy=0;entryPerimeter=0;" edge="1" parent="1" source="eMzB1tQoJw2lMaS6Gx2Q-20" target="eMzB1tQoJw2lMaS6Gx2Q-35">
          <mxGeometry width="50" height="50" relative="1" as="geometry">
            <mxPoint x="-110.6" y="246" as="sourcePoint" />
            <mxPoint x="14" y="317" as="targetPoint" />
          </mxGeometry>
        </mxCell>
        <mxCell id="eMzB1tQoJw2lMaS6Gx2Q-32" value="" style="endArrow=classic;html=1;rounded=0;entryX=-0.026;entryY=0.719;entryDx=0;entryDy=0;entryPerimeter=0;exitX=0.587;exitY=0.025;exitDx=0;exitDy=0;exitPerimeter=0;" edge="1" parent="1" source="eMzB1tQoJw2lMaS6Gx2Q-21" target="eMzB1tQoJw2lMaS6Gx2Q-35">
          <mxGeometry width="50" height="50" relative="1" as="geometry">
            <mxPoint x="-114" y="482" as="sourcePoint" />
            <mxPoint x="14" y="326" as="targetPoint" />
          </mxGeometry>
        </mxCell>
        <mxCell id="eMzB1tQoJw2lMaS6Gx2Q-33" value="Encode" style="rhombus;whiteSpace=wrap;html=1;" vertex="1" parent="1">
          <mxGeometry x="292" y="277" width="80" height="80" as="geometry" />
        </mxCell>
        <mxCell id="eMzB1tQoJw2lMaS6Gx2Q-34" value="Video Properties" style="shape=process;whiteSpace=wrap;html=1;backgroundOutline=1;" vertex="1" parent="1">
          <mxGeometry x="342.5" y="468" width="120" height="60" as="geometry" />
        </mxCell>
        <mxCell id="eMzB1tQoJw2lMaS6Gx2Q-35" value="" style="sketch=0;aspect=fixed;pointerEvents=1;shadow=0;dashed=0;html=1;strokeColor=none;labelPosition=center;verticalLabelPosition=bottom;verticalAlign=top;align=center;fillColor=#00188D;shape=mxgraph.mscae.enterprise.application_server" vertex="1" parent="1">
          <mxGeometry x="25" y="245" width="96.32" height="112" as="geometry" />
        </mxCell>
        <mxCell id="eMzB1tQoJw2lMaS6Gx2Q-37" value="Processing Queue" style="shape=singleArrow;whiteSpace=wrap;html=1;" vertex="1" parent="1">
          <mxGeometry x="134.6" y="292" width="143.4" height="60" as="geometry" />
        </mxCell>
        <mxCell id="eMzB1tQoJw2lMaS6Gx2Q-38" value="" style="endArrow=classic;html=1;rounded=0;exitX=1;exitY=1;exitDx=0;exitDy=0;entryX=0.342;entryY=-0.025;entryDx=0;entryDy=0;entryPerimeter=0;" edge="1" parent="1" source="eMzB1tQoJw2lMaS6Gx2Q-33" target="eMzB1tQoJw2lMaS6Gx2Q-34">
          <mxGeometry width="50" height="50" relative="1" as="geometry">
            <mxPoint x="376" y="350" as="sourcePoint" />
            <mxPoint x="426" y="300" as="targetPoint" />
          </mxGeometry>
        </mxCell>
        <mxCell id="eMzB1tQoJw2lMaS6Gx2Q-39" value="" style="endArrow=classic;startArrow=classic;html=1;rounded=0;entryX=0.213;entryY=1.031;entryDx=0;entryDy=0;entryPerimeter=0;" edge="1" parent="1" target="eMzB1tQoJw2lMaS6Gx2Q-35">
          <mxGeometry width="50" height="50" relative="1" as="geometry">
            <mxPoint x="46" y="468" as="sourcePoint" />
            <mxPoint x="96" y="418" as="targetPoint" />
          </mxGeometry>
        </mxCell>
        <mxCell id="eMzB1tQoJw2lMaS6Gx2Q-40" value="" style="endArrow=classic;html=1;rounded=0;entryX=0.42;entryY=0.996;entryDx=0;entryDy=0;entryPerimeter=0;exitX=0.15;exitY=0.05;exitDx=0;exitDy=0;exitPerimeter=0;" edge="1" parent="1" source="eMzB1tQoJw2lMaS6Gx2Q-24" target="eMzB1tQoJw2lMaS6Gx2Q-35">
          <mxGeometry width="50" height="50" relative="1" as="geometry">
            <mxPoint x="138" y="462" as="sourcePoint" />
            <mxPoint x="188" y="412" as="targetPoint" />
          </mxGeometry>
        </mxCell>
        <mxCell id="eMzB1tQoJw2lMaS6Gx2Q-41" value="" style="endArrow=classic;html=1;rounded=0;exitX=0;exitY=1;exitDx=0;exitDy=0;entryX=0.5;entryY=0;entryDx=0;entryDy=0;" edge="1" parent="1" source="eMzB1tQoJw2lMaS6Gx2Q-33" target="eMzB1tQoJw2lMaS6Gx2Q-24">
          <mxGeometry width="50" height="50" relative="1" as="geometry">
            <mxPoint x="250" y="424" as="sourcePoint" />
            <mxPoint x="292" y="454" as="targetPoint" />
          </mxGeometry>
        </mxCell>
        <mxCell id="eMzB1tQoJw2lMaS6Gx2Q-42" value="" style="endArrow=classic;html=1;rounded=0;entryX=1;entryY=0.99;entryDx=0;entryDy=0;entryPerimeter=0;" edge="1" parent="1" target="eMzB1tQoJw2lMaS6Gx2Q-35">
          <mxGeometry width="50" height="50" relative="1" as="geometry">
            <mxPoint x="342.5" y="487" as="sourcePoint" />
            <mxPoint x="392.5" y="437" as="targetPoint" />
          </mxGeometry>
        </mxCell>
        <mxCell id="eMzB1tQoJw2lMaS6Gx2Q-43" value="" style="endArrow=classic;startArrow=classic;html=1;rounded=0;entryX=1;entryY=0.75;entryDx=0;entryDy=0;exitX=0;exitY=0.5;exitDx=0;exitDy=0;exitPerimeter=0;" edge="1" parent="1" source="eMzB1tQoJw2lMaS6Gx2Q-12" target="eMzB1tQoJw2lMaS6Gx2Q-7">
          <mxGeometry width="50" height="50" relative="1" as="geometry">
            <mxPoint x="-184" y="462" as="sourcePoint" />
            <mxPoint x="-134" y="412" as="targetPoint" />
          </mxGeometry>
        </mxCell>
        <mxCell id="eMzB1tQoJw2lMaS6Gx2Q-45" value="&lt;font style=&quot;font-size: 14px;&quot;&gt;&lt;br&gt;At a high-level we would need the following components:&lt;br&gt;1. Processing Queue: Each uploaded video will be pushed to a processing queue to be de-queued&lt;br&gt;later for encoding, thumbnail generation, and storage.&lt;br&gt;2. Encoder: To encode each uploaded video into multiple formats.&lt;br&gt;3. Thumbnails generator: To generate a few thumbnails for each video.&lt;br&gt;4. Video and Thumbnail storage: To store video and thumbnail files in some distributed file&lt;br&gt;storage.&lt;br&gt;5. User Database: To store user’s information, e.g., name, email, address, etc.&lt;br&gt;6. Video metadata storage: A metadata database to store all the information about videos like&lt;br&gt;title, file path in the system, uploading user, total views, likes, dislikes, etc. It will also be used&lt;br&gt;to store all the video comments&lt;br&gt;&lt;br&gt;&lt;/font&gt;" style="rounded=0;whiteSpace=wrap;html=1;align=left;" vertex="1" parent="1">
          <mxGeometry x="-810" y="826" width="658" height="210" as="geometry" />
        </mxCell>
        <mxCell id="eMzB1tQoJw2lMaS6Gx2Q-48" value="" style="points=[];aspect=fixed;html=1;align=center;shadow=0;dashed=0;fillColor=#FF6A00;strokeColor=none;shape=mxgraph.alibaba_cloud.cdn_content_distribution_network;" vertex="1" parent="1">
          <mxGeometry x="-532" y="476.85" width="117.13" height="97.15" as="geometry" />
        </mxCell>
        <mxCell id="eMzB1tQoJw2lMaS6Gx2Q-49" value="" style="endArrow=classic;startArrow=classic;html=1;rounded=0;entryX=0.003;entryY=0.802;entryDx=0;entryDy=0;entryPerimeter=0;" edge="1" parent="1" target="eMzB1tQoJw2lMaS6Gx2Q-48">
          <mxGeometry width="50" height="50" relative="1" as="geometry">
            <mxPoint x="-756" y="392" as="sourcePoint" />
            <mxPoint x="-706" y="342" as="targetPoint" />
          </mxGeometry>
        </mxCell>
        <mxCell id="eMzB1tQoJw2lMaS6Gx2Q-50" value="" style="curved=1;endArrow=classic;html=1;rounded=0;entryX=0.15;entryY=0.95;entryDx=0;entryDy=0;entryPerimeter=0;" edge="1" parent="1" target="eMzB1tQoJw2lMaS6Gx2Q-24">
          <mxGeometry width="50" height="50" relative="1" as="geometry">
            <mxPoint x="-414.87" y="574" as="sourcePoint" />
            <mxPoint x="210" y="560" as="targetPoint" />
            <Array as="points">
              <mxPoint x="-378" y="630" />
              <mxPoint x="28" y="728" />
            </Array>
          </mxGeometry>
        </mxCell>
      </root>
    </mxGraphModel>
  </diagram>
</mxfile>
